# This file uses centimeters as units for non-parametric coordinates.

v -0.512299 -0.098719 3.792325
v -0.512299 -0.098719 -2.500429
v 0.487701 -0.098719 3.792325
v 0.487701 -0.098719 -2.500429
v 0.487701 0.098719 3.792325
v 0.487701 0.098719 -2.500429
v -0.512299 0.098719 3.792325
v -0.512299 0.098719 -2.500429
v -1.084044 -0.207688 -2.022511
v 1.059445 -0.207688 -2.022511
v 1.059445 0.207688 -2.022511
v -1.084044 0.207688 -2.022511
v -0.005452 0.207688 -3.792324
v -0.005452 0.207687 -2.022511
v -0.005452 -0.207687 -2.022511
v -0.005452 -0.207688 -3.792324
v -0.005452 0.207688 -2.932561
v 0.496322 0.207688 -2.932561
v 0.496322 -0.207688 -2.932561
v -0.005452 -0.207687 -2.932561
v -0.520921 -0.207688 -2.932561
v -0.520921 0.207688 -2.932561
vt 0.375000 0.000000
vt 0.625000 0.000000
vt 0.625000 0.250000
vt 0.375000 0.250000
vt 0.625000 0.500000
vt 0.375000 0.500000
vt 0.625000 0.750000
vt 0.375000 0.750000
vt 0.625000 1.000000
vt 0.375000 1.000000
vt 0.875000 0.000000
vt 0.875000 0.250000
vt 0.125000 0.000000
vt 0.125000 0.250000
vt 0.503552 0.125799
vt 0.625000 0.125799
vt 0.503552 0.250000
vt 0.875000 0.125799
vt 0.503552 0.500000
vt 0.625000 0.624201
vt 0.503552 0.624201
vt 0.503552 1.000000
vt 0.503552 0.750000
vt 0.125000 0.125799
vt 0.375000 0.125799
vt 0.375000 0.250000
vt 0.125000 0.250000
vt 0.125000 0.000000
vt 0.375000 0.000000
vt 0.503552 0.000000
vt 0.375000 0.500000
vt 0.375000 0.624201
vt 0.375000 0.750000
vt 0.375000 1.000000
vn 0.000000 -1.000000 0.000000
vn 0.000000 -1.000000 0.000000
vn 0.000000 -1.000000 0.000000
vn 0.000000 -1.000000 0.000000
vn 1.000000 0.000000 0.000000
vn 1.000000 0.000000 0.000000
vn 1.000000 0.000000 0.000000
vn 1.000000 0.000000 0.000000
vn 0.000000 1.000000 -0.000000
vn 0.000000 1.000000 -0.000000
vn 0.000000 1.000000 -0.000000
vn 0.000000 1.000000 -0.000000
vn -1.000000 0.000000 0.000000
vn -1.000000 0.000000 0.000000
vn -1.000000 0.000000 0.000000
vn -1.000000 0.000000 0.000000
vn 0.000000 -0.000000 -1.000000
vn 0.000000 -0.000000 -1.000000
vn 0.000000 -0.000000 -1.000000
vn 0.000000 -0.000000 -1.000000
vn 0.000000 0.000000 1.000000
vn 0.000000 0.000000 1.000000
vn 0.000000 0.000000 1.000000
vn 0.000000 0.000000 1.000000
vn -0.000001 -1.000000 0.000000
vn -0.000001 -1.000000 0.000000
vn -0.000001 -1.000000 0.000000
vn 0.863671 -0.000000 -0.504055
vn 0.863672 -0.000000 -0.504055
vn 0.863671 -0.000000 -0.504055
vn 0.863672 -0.000000 -0.504055
vn 0.000000 1.000000 -0.000000
vn 0.000000 1.000000 -0.000000
vn 0.000000 1.000000 -0.000000
vn -0.857664 -0.000000 -0.514210
vn -0.857664 -0.000000 -0.514210
vn -0.857664 -0.000000 -0.514210
vn -0.857664 -0.000000 -0.514210
vn 0.000000 0.000000 1.000000
vn 0.000000 0.000000 1.000000
vn 0.000000 0.000000 1.000000
vn 0.000000 0.000000 1.000000
vn 0.000000 1.000000 -0.000000
vn 0.000000 1.000000 -0.000000
vn 0.000000 1.000000 -0.000000
vn 0.000000 0.000000 1.000000
vn 0.000000 0.000000 1.000000
vn 0.000000 0.000000 1.000000
vn 0.000000 0.000000 1.000000
vn 0.000001 -1.000000 0.000000
vn 0.000001 -1.000000 0.000000
vn 0.000001 -1.000000 0.000000
vn 0.000000 1.000000 -0.000000
vn 0.000000 1.000000 -0.000000
vn 0.000000 1.000000 -0.000000
vn 0.000000 1.000000 -0.000000
vn 0.850366 -0.000000 -0.526192
vn 0.850366 -0.000000 -0.526192
vn 0.850366 -0.000000 -0.526192
vn 0.850366 -0.000000 -0.526192
vn 0.000000 -1.000000 0.000000
vn 0.000000 -1.000000 0.000000
vn 0.000000 -1.000000 0.000000
vn 0.000000 -1.000000 0.000000
vn 0.000000 -1.000000 0.000000
vn 0.000000 -1.000000 0.000000
vn 0.000000 -1.000000 0.000000
vn 0.000000 -1.000000 0.000000
vn -0.850366 -0.000000 -0.526192
vn -0.850366 -0.000000 -0.526192
vn -0.850366 -0.000000 -0.526192
vn -0.850366 -0.000000 -0.526192
vn 0.000000 1.000000 -0.000000
vn 0.000000 1.000000 -0.000000
vn 0.000000 1.000000 -0.000000
vn 0.000000 1.000000 -0.000000
f 1/1/1 2/2/2 4/3/3 3/4/4
f 3/4/5 4/3/6 6/5/7 5/6/8
f 5/6/9 6/5/10 8/7/11 7/8/12
f 7/8/13 8/7/14 2/9/15 1/10/16
f 2/2/17 8/11/18 6/12/19 4/3/20
f 7/13/21 1/1/22 3/4/23 5/14/24
f 20/15/25 16/16/26 19/17/27
f 13/18/28 18/19/29 19/17/30 16/16/31
f 18/19/32 13/20/33 17/21/34
f 16/16/35 21/22/36 22/23/37 13/18/38
f 14/24/39 15/25/40 10/26/41 11/27/42
f 22/23/43 17/21/44 13/20/45
f 12/28/46 9/29/47 15/25/48 14/24/49
f 21/30/50 16/16/51 20/15/52
f 11/31/53 18/19/54 17/21/55 14/32/56
f 10/26/57 19/17/58 18/19/59 11/31/60
f 15/25/61 20/15/62 19/17/63 10/26/64
f 9/29/65 21/30/66 20/15/67 15/25/68
f 12/33/69 22/23/70 21/22/71 9/34/72
f 14/32/73 17/21/74 22/23/75 12/33/76
